<?xml version="1.0" standalone="no"?>
<!DOCTYPE svg PUBLIC "-//W3C//DTD SVG 20010904//EN"
 "http://www.w3.org/TR/2001/REC-SVG-20010904/DTD/svg10.dtd">
<svg version="1.0" xmlns="http://www.w3.org/2000/svg"
 width="520.000000pt" height="520.000000pt" viewBox="0 0 520.000000 520.000000"
 preserveAspectRatio="xMidYMid meet">
<metadata>
Created by potrace 1.11, written by Peter Selinger 2001-2013
</metadata>
<g transform="translate(0.000000,520.000000) scale(0.100000,-0.100000)"
fill="#000000" stroke="none">
<path d="M2522 5087 c-57 -16 -134 -85 -162 -144 -19 -41 -23 -67 -25 -176 -1
-70 -4 -129 -6 -131 -2 -2 -61 29 -130 69 -144 83 -178 96 -246 96 -119 0
-218 -72 -258 -187 -31 -91 6 -221 80 -282 20 -16 93 -62 163 -101 156 -88
207 -117 252 -143 19 -12 55 -32 80 -46 25 -13 49 -29 55 -34 12 -11 14 -948
2 -948 -5 0 -88 46 -185 103 -97 56 -184 105 -194 109 -12 5 -8 -7 17 -45 19
-29 51 -79 71 -112 21 -33 67 -105 103 -160 36 -55 70 -108 76 -118 21 -36
186 -293 203 -314 16 -22 17 -1 16 415 0 272 4 446 10 460 19 43 51 51 217 50
l154 0 30 -32 30 -32 0 310 0 311 230 132 c127 73 246 140 265 149 55 27 124
105 142 161 46 142 -38 307 -176 344 -102 27 -161 10 -356 -104 -52 -30 -97
-53 -100 -51 -2 3 -5 55 -5 117 -1 62 -7 133 -14 159 -16 57 -67 119 -126 153
-51 30 -148 40 -213 22z"/>
<path d="M1233 4389 c-86 -18 -150 -66 -191 -144 -26 -48 -27 -57 -30 -237 -2
-104 -6 -188 -9 -188 -4 0 -56 29 -117 64 -126 73 -171 88 -244 82 -176 -15
-294 -211 -223 -370 30 -68 69 -104 177 -168 57 -33 104 -62 104 -63 0 -2 -51
-32 -112 -66 -62 -35 -131 -82 -153 -104 -54 -54 -80 -128 -71 -206 15 -146
121 -243 266 -243 79 0 86 3 389 177 l226 129 76 -40 75 -41 1 205 c0 217 6
247 47 261 23 7 59 11 146 12 l55 1 -47 26 -46 26 0 339 0 338 -25 54 c-53
115 -176 181 -294 156z"/>
<path d="M3875 4390 c-86 -19 -154 -74 -192 -157 l-26 -56 0 -337 c0 -376 8
-335 -71 -380 -17 -9 -69 -40 -116 -67 -47 -27 -92 -52 -100 -56 -8 -4 -123
-70 -255 -146 l-240 -139 -3 -465 -2 -465 52 -30 53 -30 66 72 c50 53 103 94
207 160 161 101 181 119 160 138 -20 18 -99 60 -104 56 -2 -3 -8 -29 -14 -59
-7 -37 -18 -61 -36 -76 -24 -22 -34 -23 -178 -23 l-153 0 3 89 c6 196 94 332
257 398 53 22 79 26 177 27 108 1 167 -5 188 -18 5 -3 98 46 208 109 109 63
202 115 206 115 4 0 33 -15 65 -34 32 -18 78 -44 103 -58 25 -14 113 -64 195
-111 83 -47 170 -91 194 -97 52 -14 118 -6 176 19 164 73 206 301 80 426 -22
22 -91 69 -153 104 -61 35 -112 65 -112 66 0 2 46 30 103 63 117 69 147 97
178 166 73 166 -51 363 -233 372 -72 3 -109 -10 -236 -83 -62 -36 -116 -63
-118 -60 -3 3 -5 79 -5 169 0 192 -12 246 -70 312 -60 68 -168 104 -254 86z"/>
<path d="M1464 3376 c-2 -6 -3 -364 -2 -796 l3 -785 150 0 150 0 2 543 c1 299
3 546 6 548 2 3 20 -21 39 -53 43 -72 623 -978 650 -1015 l19 -28 160 0 c120
0 159 3 160 13 1 6 3 362 3 790 1 528 -2 781 -9 786 -5 5 -73 8 -150 7 l-140
-1 -3 -554 -2 -553 -118 183 c-65 101 -183 285 -263 409 -79 124 -148 233
-154 242 -32 56 -157 246 -170 259 -14 14 -40 17 -171 16 -103 0 -157 -4 -160
-11z"/>
<path d="M3280 2783 c-107 -30 -127 -41 -186 -98 -68 -67 -91 -117 -101 -222
-5 -50 -3 -63 8 -64 49 -3 211 -1 215 4 3 3 7 22 10 43 15 124 101 180 213
140 75 -27 94 -100 47 -180 -28 -48 -58 -71 -254 -197 -101 -64 -159 -119
-199 -186 -30 -52 -53 -133 -53 -190 l0 -43 369 0 369 0 5 23 c3 12 4 54 4 92
l-2 70 -235 5 -234 5 34 33 c19 18 69 54 110 79 280 171 341 239 345 387 3 76
-16 134 -60 191 -27 36 -108 82 -176 100 -45 12 -196 18 -229 8z"/>
<path d="M1880 2481 l-45 -27 -2 -312 c-1 -288 0 -311 15 -303 10 5 99 56 199
114 l182 105 -143 223 c-79 123 -147 224 -152 225 -5 1 -29 -10 -54 -25z"/>
<path d="M544 2411 c-62 -21 -100 -50 -136 -103 -49 -73 -60 -146 -33 -235 22
-74 79 -128 213 -202 61 -34 112 -63 112 -65 0 -4 -97 -62 -143 -85 -189 -98
-214 -353 -45 -469 54 -37 98 -49 168 -47 62 2 94 15 225 92 50 29 93 53 97
53 3 0 8 -84 10 -187 3 -177 5 -191 28 -236 47 -93 138 -149 245 -150 107 -1
194 57 242 161 l25 54 0 338 -1 337 40 22 c21 12 39 25 39 29 0 4 -35 7 -77 6
-152 -2 -156 6 -156 259 1 100 -1 189 -3 199 -4 14 -15 10 -72 -23 -37 -21
-70 -39 -73 -39 -4 0 -115 61 -246 136 -131 75 -253 143 -272 151 -52 22 -129
24 -187 4z"/>
<path d="M4505 2416 c-22 -7 -125 -61 -230 -121 -104 -59 -210 -119 -235 -133
-25 -14 -52 -30 -61 -35 -16 -10 -58 10 -191 90 l-57 34 -63 -53 c-35 -29 -81
-64 -103 -78 -22 -13 -41 -28 -43 -32 -2 -4 -10 -8 -17 -8 -7 0 -23 -9 -36
-20 l-24 -19 145 -1 c192 -1 200 -7 200 -164 0 -86 -2 -98 -24 -123 -22 -26
-30 -28 -100 -29 -42 0 -79 -3 -82 -7 -3 -3 12 -15 33 -26 l40 -20 0 -339 1
-340 25 -56 c105 -228 433 -205 504 36 6 20 11 110 11 200 1 89 1 168 1 175 1
7 51 -17 111 -53 135 -80 168 -92 246 -89 152 5 262 129 255 285 -5 103 -57
170 -197 252 -115 67 -114 63 -29 109 114 61 177 104 205 138 135 172 23 423
-194 436 -28 2 -69 -2 -91 -9z"/>
<path d="M2335 1523 l0 -358 -264 -151 c-145 -83 -279 -163 -297 -178 -50 -39
-86 -117 -89 -191 -6 -156 116 -278 276 -277 58 1 109 22 261 110 59 34 108
62 110 62 2 0 3 -51 2 -112 -1 -154 20 -222 88 -283 114 -102 277 -98 377 10
64 69 73 101 75 252 0 73 3 133 6 133 3 0 14 -6 25 -13 11 -8 45 -27 75 -44
30 -17 84 -47 119 -67 122 -70 252 -61 339 24 62 60 85 112 86 195 0 83 -32
157 -89 202 -19 15 -153 96 -297 178 l-263 150 0 312 0 311 -26 -31 -27 -32
-173 -1 c-125 -1 -181 2 -199 11 -14 7 -43 43 -65 79 -22 36 -42 66 -45 66 -3
0 -5 -161 -5 -357z"/>
</g>
</svg>
