<svg id="Layer_1" data-name="Layer 1" xmlns="http://www.w3.org/2000/svg" viewBox="0 0 500 224.27">
  <g>
    <g>
      <g>
        <path d="M178.14,78.16h11.2l-9,46.2a4.89,4.89,0,0,0,.93,4.11,4.75,4.75,0,0,0,3.77,1.68,7.86,7.86,0,0,0,7.24-6.12l8.9-45.87h10.94a7,7,0,0,0,6.78-7,4,4,0,0,0-4.31-4h-34a7,7,0,0,0-6.78,7A4,4,0,0,0,178.14,78.16Z"/>
        <path d="M205.75,111.34c0,10.9,7.72,18.81,18.36,18.81a23.5,23.5,0,0,0,13-3.87l1.1-.72.25,1.3a4.09,4.09,0,0,0,4.33,3.29,7.1,7.1,0,0,0,6.7-5.65l6.93-35.58a4.23,4.23,0,0,0-4.33-5.34,7.18,7.18,0,0,0-6.46,4.71l-.48,1.33-1-1a17.1,17.1,0,0,0-12.59-5C217.58,83.58,205.75,96.29,205.75,111.34Zm11.09-1.92c0-8.39,7.11-15.75,15.21-15.75,5.94,0,10.09,4.37,10.09,10.64,0,8.54-6.79,15.76-14.84,15.76C221.24,120.07,216.84,115.59,216.84,109.42Z"/>
        <path d="M280.84,130.15a27.75,27.75,0,0,0,17.4-6.27,6.86,6.86,0,0,0,2.51-5.25,4.06,4.06,0,0,0-4.31-4.13,8.09,8.09,0,0,0-5.17,2.25,15.29,15.29,0,0,1-9.06,3.32c-6.06,0-10.46-4.48-10.46-10.65,0-8.39,7.1-15.75,15.2-15.75a10.54,10.54,0,0,1,8,3.49c1.43,1.59,2.14,2,3.63,2A6.58,6.58,0,0,0,305,92.73a5.26,5.26,0,0,0-1.86-3.5,20.92,20.92,0,0,0-14.77-5.65c-15,0-27.66,12.71-27.66,27.76C260.66,122.24,269.15,130.15,280.84,130.15Z"/>
        <path d="M313,94.58h2.8l-2.57,13.55c-1.33,6.85-.32,12.55,2.92,16.47,3,3.63,7.77,5.55,13.81,5.55a6.51,6.51,0,0,0,6.32-6.32,3.7,3.7,0,0,0-3.95-3.76c-3.06,0-5.34-.88-6.76-2.61-1.71-2.07-2.15-5.32-1.31-9.67l2.51-13.21h10.12a6.51,6.51,0,0,0,6.32-6.32,3.71,3.71,0,0,0-3.95-3.77H328.74L330.05,78a4.5,4.5,0,0,0-.79-3.82,4.33,4.33,0,0,0-3.45-1.5,7.3,7.3,0,0,0-6.8,5.68l-1.23,6.17h-2.37a6.51,6.51,0,0,0-6.32,6.32A3.7,3.7,0,0,0,313,94.58Z"/>
        <path d="M347.88,130.15a7.15,7.15,0,0,0,6.7-5.68l6.93-35.55a4.23,4.23,0,0,0-4.33-5.34,7.15,7.15,0,0,0-6.7,5.67l-6.93,35.57a4.22,4.22,0,0,0,4.33,5.33Z"/>
        <path d="M408.16,89.23a20.9,20.9,0,0,0-14.77-5.65c-15,0-27.66,12.71-27.66,27.76,0,10.9,8.49,18.81,20.18,18.81a27.75,27.75,0,0,0,17.4-6.27,6.86,6.86,0,0,0,2.51-5.25,4.06,4.06,0,0,0-4.31-4.13,8.09,8.09,0,0,0-5.17,2.25,15.29,15.29,0,0,1-9.06,3.32c-6.06,0-10.46-4.48-10.46-10.65,0-8.39,7.1-15.75,15.2-15.75a10.54,10.54,0,0,1,8,3.49c1.43,1.59,2.14,2,3.63,2A6.58,6.58,0,0,0,410,92.73,5.26,5.26,0,0,0,408.16,89.23Z"/>
        <path d="M459.52,83.58a7.19,7.19,0,0,0-6.47,4.71l-.48,1.33-1-1a17.11,17.11,0,0,0-12.59-5c-14,0-25.84,12.71-25.84,27.76,0,10.9,7.72,18.81,18.36,18.81a23.44,23.44,0,0,0,13-3.87l1.11-.72.25,1.3a4.08,4.08,0,0,0,4.32,3.29,7.09,7.09,0,0,0,6.7-5.65l6.94-35.58a4.48,4.48,0,0,0-.8-3.79A4.42,4.42,0,0,0,459.52,83.58Zm-10,20.73c0,8.54-6.8,15.76-14.84,15.76-6.06,0-10.46-4.48-10.46-10.65,0-8.39,7.1-15.75,15.2-15.75C445.4,93.67,449.55,98,449.55,104.31Z"/>
        <path d="M487.4,67.8a4.42,4.42,0,0,0-3.53-1.55,7.15,7.15,0,0,0-6.7,5.67l-10.31,52.9a4.22,4.22,0,0,0,4.33,5.33,7.14,7.14,0,0,0,6.7-5.68L488.2,71.59A4.48,4.48,0,0,0,487.4,67.8Z"/>
        <path d="M201,148.84H185.71a8,8,0,0,0-7.34,6.13L168.43,206a4.87,4.87,0,0,0,.94,4.11,4.75,4.75,0,0,0,3.76,1.68,7.86,7.86,0,0,0,7.24-6.13l8.9-45.86h9a6.46,6.46,0,0,1,6.63,6.72,9.68,9.68,0,0,1-9.46,9.65h-.09a7,7,0,0,0-6.78,6.95,4,4,0,0,0,4.32,4h2c12.07,0,22.65-10.62,22.65-22.73C217.57,155.56,210.46,148.84,201,148.84Z"/>
        <path d="M233.41,146.11c-3.68,0-8,3.47-8,8a4.91,4.91,0,0,0,5.14,4.86c3.68,0,8-3.48,8-8A4.91,4.91,0,0,0,233.41,146.11Z"/>
        <path d="M229.68,165.26a7.17,7.17,0,0,0-6.71,5.67L216,206.5a4.23,4.23,0,0,0,4.33,5.33,7.16,7.16,0,0,0,6.71-5.68L234,170.59a4.21,4.21,0,0,0-4.32-5.33Z"/>
        <path d="M269.44,166.17H258.88l1.3-6.53a4.5,4.5,0,0,0-.79-3.82,4.32,4.32,0,0,0-3.45-1.5,7.3,7.3,0,0,0-6.79,5.67l-1.24,6.18h-2.36a6.51,6.51,0,0,0-6.32,6.32,3.7,3.7,0,0,0,3.94,3.77H246l-2.57,13.54c-1.33,6.86-.32,12.56,2.91,16.48,3,3.63,7.78,5.55,13.82,5.55a6.51,6.51,0,0,0,6.32-6.32,3.71,3.71,0,0,0-3.95-3.77c-3.06,0-5.34-.87-6.77-2.6-1.7-2.07-2.14-5.32-1.3-9.67l2.5-13.21h10.13a6.51,6.51,0,0,0,6.32-6.32A3.71,3.71,0,0,0,269.44,166.17Z"/>
        <path d="M316,170.91a20.92,20.92,0,0,0-14.77-5.65c-15,0-27.66,12.71-27.66,27.75,0,10.91,8.49,18.82,20.18,18.82a27.81,27.81,0,0,0,17.4-6.27,6.86,6.86,0,0,0,2.51-5.25,4.06,4.06,0,0,0-4.31-4.13,8.11,8.11,0,0,0-5.17,2.25,15.28,15.28,0,0,1-9.06,3.31c-6.06,0-10.46-4.47-10.46-10.64,0-8.39,7.1-15.75,15.2-15.75a10.54,10.54,0,0,1,8,3.49c1.43,1.59,2.14,2,3.63,2a6.58,6.58,0,0,0,6.41-6.41A5.26,5.26,0,0,0,316,170.91Z"/>
        <path d="M350,165.26a17.14,17.14,0,0,0-10.25,3.39l-1.81,1.3,3.25-16.69a4.21,4.21,0,0,0-4.33-5.33,7.16,7.16,0,0,0-6.7,5.68l-10.3,52.89a4.21,4.21,0,0,0,4.33,5.33,7.16,7.16,0,0,0,6.7-5.68l4.1-21c1.18-6,5.42-9.83,10.81-9.83a7.54,7.54,0,0,1,6,2.52c1.05,1.28,2.14,3.65,1.35,7.65l-4.11,21a4.6,4.6,0,0,0,.88,3.83,4.4,4.4,0,0,0,3.45,1.49,7.09,7.09,0,0,0,6.7-5.65l3.84-19.63c1.27-6.66.16-12.51-3.12-16.49A13.5,13.5,0,0,0,350,165.26Z"/>
      </g>
      <g>
        <g>
          <path d="M360.69,37.28l-8.49-3.42A3.59,3.59,0,0,0,348.05,35l-5.52,7.5a3.5,3.5,0,0,0-.16,3.93l5,8.13a3.53,3.53,0,0,0,3,1.67,3.6,3.6,0,0,0,1-.13l8.72-2.52a3.51,3.51,0,0,0,2.55-3.28l.29-9.69A3.54,3.54,0,0,0,360.69,37.28Z"/>
          <path d="M384.39,22.81A30.8,30.8,0,1,0,338.3,63.69,30.56,30.56,0,0,0,359.5,74c.62,0,1.24,0,1.86,0a30.81,30.81,0,0,0,23-51.26Zm-6.3,26.91-8,4.88a3.1,3.1,0,0,0-1.43,2.12l-1,6.25A3.07,3.07,0,0,0,369,66l1.42,1a3.22,3.22,0,0,0,.67.33l2.24.81-2.22.85a27.37,27.37,0,0,1-11.4,1.78L359,70.6l-.31,0-.63-.06-.74-3.15c-.2-.82-.46-2-8.74-6.08a2.94,2.94,0,0,0-.95-.31l-1.52-.22A3,3,0,0,0,343,62.17l-.6,1-.79-.83a27.67,27.67,0,0,1-6.42-10.68l-.07-.23.9-4c.13-.54.54-2.12.73-2.86l.05-.17a3,3,0,0,0,.07-1.19c0-.23-.05-.61-.07-1.06l0-.28c-.11-2.34-.23-4.75-1.38-5.54l-.53-.37.19-.62A27.53,27.53,0,0,1,341.8,24l.68-.69.63.74a3,3,0,0,0,2.2,1.1l3.29.14a3.11,3.11,0,0,0,1.52-.4l8.42-4.83A3.09,3.09,0,0,0,360,16.85l-.18-1,1.19,0a14.29,14.29,0,0,1,2,0,27.43,27.43,0,0,1,13.4,4.47L379,22l-6.12-.14a3.08,3.08,0,0,0-2.32,1,3,3,0,0,0-.77,2.44l.82,6.68a3.12,3.12,0,0,0,1.36,2.21l7.49,4.93a3,3,0,0,0,1.68.5,3.08,3.08,0,0,0,2.56-1.36L387,33.35l.55,1.76a26.9,26.9,0,0,1-1.08,19.16l-.86,1.95-.77-2a3.66,3.66,0,0,0-.4-.74l-2.27-3A3.08,3.08,0,0,0,378.09,49.72Z"/>
        </g>
        <path d="M223.84,65.12a1.8,1.8,0,0,0-.59,2.27,1.84,1.84,0,0,0,2.13,1.08c54.1-11.53,84.27-6.9,97.43-3.11A1.88,1.88,0,0,0,325,62.67a44.64,44.64,0,0,1-5.09-18c-.85-11.72,3.56-19.59,7.41-24.12a1.9,1.9,0,0,0,.22-2.21,1.83,1.83,0,0,0-1.93-.91c-42.49,7-82,32.91-101.75,47.72Z"/>
      </g>
    </g>
    <g>
      <path d="M61.31,88.08a4.71,4.71,0,0,0-3.9,7.32l8.13,12.19-.86.76a33.07,33.07,0,0,0,22,57.84c.66,0,1.32,0,2-.06a4.79,4.79,0,0,0,3.7-7.44,4.83,4.83,0,0,0-4.3-2.12,23.5,23.5,0,0,1-18.32-39.81l1.15-1.19,8.77,13.15a4.72,4.72,0,0,0,3.93,2.09,4.71,4.71,0,0,0,3.9-7.32L65.24,90.17a4.71,4.71,0,0,0-3-2A4.88,4.88,0,0,0,61.31,88.08Z"/>
      <path d="M91.91,133.91a4.7,4.7,0,0,0-3.9,7.32l22.24,33.32a4.72,4.72,0,0,0,6.53,1.3,4.7,4.7,0,0,0,1.3-6.52l-8.14-12.19.87-.77a33.19,33.19,0,0,0,5.58-43.13h0A33.33,33.33,0,0,0,87.3,98.57,4.78,4.78,0,0,0,83.55,106a4.81,4.81,0,0,0,4.23,2.12,23.35,23.35,0,0,1,20.64,10.43A23.63,23.63,0,0,1,105.76,148l-1.15,1.18L95.83,136a4.69,4.69,0,0,0-3-2A4.88,4.88,0,0,0,91.91,133.91Z"/>
      <path d="M97.49,55.22a34.17,34.17,0,0,0-18.93,5.7l-51.45,34a34.45,34.45,0,0,0-9.72,47.69l34,51.45A34.44,34.44,0,0,0,99.1,203.8l51.45-34a34.41,34.41,0,0,0,9.72-47.69l-34-51.44A34.41,34.41,0,0,0,97.49,55.22ZM80.18,201.68a27.17,27.17,0,0,1-5.37-.54,26.28,26.28,0,0,1-14.59-8.43l-1.11-1.25,1.47-.8c6.43-3.45,12-4.63,17.09-3.6h0c5.07,1,9.75,4.31,14.31,10L93,198.38l-1.51.72A26.3,26.3,0,0,1,80.18,201.68Zm19.41-7.6-.76-1c-6.69-8.65-14-13.26-22.2-14.1h0c-6.41-.66-13.21,1.08-20.79,5.33l-1.08.6-28-42.39,1-.76c8.65-6.7,13.26-14,14.1-22.21.64-6.24-1-12.85-5-20.19l-.58-1.07,42-27.8.75,1c6.7,8.64,14,13.25,22.21,14.1a25.5,25.5,0,0,0,2.64.13c5.61,0,11.49-1.75,18-5.35l1.07-.6,27.64,41.79-1,.76c-9,6.82-13.85,14.24-14.72,22.66-.66,6.41,1.09,13.21,5.33,20.79l.61,1.08Zm47.71-31.53-.77-1.42c-3.5-6.46-4.69-12.09-3.65-17.18h0c1.07-5.25,4.55-10.1,10.65-14.82l1.29-1,.72,1.48a26.59,26.59,0,0,1-7,31.92ZM22.48,136l-.7-1.59a26.64,26.64,0,0,1,6.64-30.57l1.28-1.13.78,1.51c2.82,5.46,4,10.24,3.53,14.6-.59,5.73-3.92,11-10.18,16.08Zm81.38-58.07c-.63,0-1.24,0-1.85-.09h0c-5.74-.59-11-3.94-16.13-10.24l-1.07-1.32,1.55-.72A26.27,26.27,0,0,1,97.5,63.06,26.6,26.6,0,0,1,117.41,72l1.13,1.27-1.5.79C112.17,76.63,107.83,77.89,103.86,77.89Z"/>
    </g>
  </g>
</svg>
