<?xml version="1.0" encoding="utf-8"?>
<!-- Generator: Adobe Illustrator 26.5.0, SVG Export Plug-In . SVG Version: 6.00 Build 0)  -->
<svg version="1.1" id="Layer_1" xmlns="http://www.w3.org/2000/svg" xmlns:xlink="http://www.w3.org/1999/xlink" x="0px" y="0px"
	 viewBox="0 0 497.5 316.5" style="enable-background:new 0 0 497.5 316.5;" xml:space="preserve">
<g>
	<g>
		<g>
			<path d="M178.1,78.2h11.2l-9,46.2c-0.3,1.4,0,3,0.9,4.1s2.3,1.7,3.8,1.7c3.5-0.2,6.5-2.7,7.2-6.1l8.9-45.9H212
				c3.8-0.1,6.8-3.2,6.8-7c0-2.2-1.8-4-4-4c-0.1,0-0.2,0-0.3,0h-34c-3.8,0.1-6.8,3.2-6.8,7c0,2.2,1.8,4,4,4
				C177.9,78.2,178,78.2,178.1,78.2z"/>
			<path d="M205.8,111.3c0,10.9,7.7,18.8,18.4,18.8c4.6,0,9.1-1.3,13-3.9l1.1-0.7l0.2,1.3c0.4,2,2.3,3.5,4.3,3.3
				c3.3-0.1,6-2.4,6.7-5.7l6.9-35.6c0.6-2.3-0.7-4.6-3-5.2c-0.4-0.1-0.9-0.2-1.4-0.1c-2.9,0.1-5.5,2-6.5,4.7l-0.5,1.3l-1-1
				c-3.3-3.3-7.9-5.1-12.6-5C217.6,83.6,205.8,96.3,205.8,111.3z M216.8,109.4c0-8.4,7.1-15.8,15.2-15.8c5.9,0,10.1,4.4,10.1,10.6
				c0,8.5-6.8,15.8-14.8,15.8C221.2,120.1,216.8,115.6,216.8,109.4z"/>
			<path d="M280.8,130.1c6.3,0,12.5-2.3,17.4-6.3c1.6-1.3,2.5-3.2,2.5-5.2c0-2.2-1.7-4.1-4-4.1c-0.1,0-0.2,0-0.3,0
				c-1.9,0.1-3.8,0.9-5.2,2.2c-2.6,2.1-5.8,3.2-9.1,3.3c-6.1,0-10.5-4.5-10.5-10.7c0-8.4,7.1-15.8,15.2-15.8c3,0,6,1.2,8,3.5
				c1.4,1.6,2.1,2,3.6,2c3.5-0.1,6.3-2.9,6.4-6.4c-0.1-1.4-0.8-2.6-1.9-3.5c-4-3.7-9.3-5.8-14.8-5.7c-15,0-27.7,12.7-27.7,27.8
				C260.7,122.2,269.1,130.1,280.8,130.1z"/>
			<path d="M313,94.6h2.8l-2.6,13.6c-1.3,6.8-0.3,12.6,2.9,16.5c3,3.6,7.8,5.6,13.8,5.6c3.4-0.1,6.2-2.9,6.3-6.3
				c0-2-1.6-3.7-3.6-3.8c-0.1,0-0.2,0-0.3,0c-3.1,0-5.3-0.9-6.8-2.6c-1.7-2.1-2.1-5.3-1.3-9.7l2.5-13.2h10.1
				c3.4-0.1,6.2-2.9,6.3-6.3c0-2-1.6-3.7-3.6-3.8c-0.1,0-0.2,0-0.3,0h-10.5L330,78c0.3-1.3,0-2.7-0.8-3.8c-0.9-1-2.1-1.6-3.5-1.5
				c-3.3,0.1-6.1,2.5-6.8,5.7l-1.2,6.2h-2.4c-3.4,0.1-6.2,2.9-6.3,6.3c0,2,1.6,3.7,3.7,3.7C312.8,94.6,312.9,94.6,313,94.6z"/>
			<path d="M347.9,130.1c3.3-0.1,6-2.5,6.7-5.7l6.9-35.5c0.6-2.3-0.7-4.6-3-5.2c-0.4-0.1-0.9-0.2-1.4-0.1c-3.3,0.1-6,2.5-6.7,5.7
				l-6.9,35.6c-0.6,2.2,0.7,4.6,3,5.2C346.9,130.1,347.4,130.2,347.9,130.1z"/>
			<path d="M408.2,89.2c-4-3.7-9.3-5.8-14.8-5.7c-15,0-27.7,12.7-27.7,27.8c0,10.9,8.5,18.8,20.2,18.8c6.3,0,12.5-2.3,17.4-6.3
				c1.6-1.3,2.5-3.2,2.5-5.2c0-2.2-1.7-4.1-4-4.1c-0.1,0-0.2,0-0.3,0c-1.9,0.1-3.8,0.9-5.2,2.2c-2.6,2.1-5.8,3.2-9.1,3.3
				c-6.1,0-10.5-4.5-10.5-10.7c0-8.4,7.1-15.8,15.2-15.8c3,0,6,1.2,8,3.5c1.4,1.6,2.1,2,3.6,2c3.5-0.1,6.3-2.9,6.3-6.4
				C409.9,91.4,409.2,90.1,408.2,89.2z"/>
			<path d="M459.5,83.6c-2.9,0.1-5.5,2-6.5,4.7l-0.5,1.3l-1-1c-3.3-3.3-7.9-5.1-12.6-5c-14,0-25.8,12.7-25.8,27.8
				c0,10.9,7.7,18.8,18.4,18.8c4.6,0,9.1-1.3,13-3.9l1.1-0.7l0.2,1.3c0.4,2,2.3,3.4,4.3,3.3c3.3-0.1,6-2.4,6.7-5.7l6.9-35.6
				c0.3-1.3,0-2.7-0.8-3.8C462.2,84.1,460.9,83.5,459.5,83.6z M449.5,104.3c0,8.5-6.8,15.8-14.8,15.8c-6.1,0-10.5-4.5-10.5-10.7
				c0-8.4,7.1-15.8,15.2-15.8C445.4,93.7,449.5,98,449.5,104.3L449.5,104.3z"/>
			<path d="M487.4,67.8c-0.9-1-2.2-1.6-3.5-1.6c-3.3,0.1-6,2.5-6.7,5.7l-10.3,52.9c-0.6,2.2,0.7,4.6,3,5.2c0.4,0.1,0.9,0.2,1.4,0.1
				c3.3-0.1,6-2.5,6.7-5.7l10.3-52.9C488.5,70.3,488.2,68.9,487.4,67.8z"/>
			<path d="M201,148.8h-15.3c-3.5,0.2-6.5,2.7-7.3,6.1l-9.9,51c-0.3,1.4,0,3,0.9,4.1s2.3,1.7,3.8,1.7c3.5-0.2,6.5-2.7,7.2-6.1
				l8.9-45.9h9c3.6-0.1,6.5,2.7,6.6,6.3c0,0.1,0,0.3,0,0.4c0,5.2-4.2,9.5-9.5,9.6h-0.1c-3.8,0.1-6.8,3.2-6.8,6.9c0,2.2,1.8,4,4,4
				c0.1,0,0.2,0,0.3,0h2c12.1,0,22.6-10.6,22.6-22.7C217.6,155.6,210.5,148.8,201,148.8z"/>
			<path d="M233.4,146.1c-3.7,0-8,3.5-8,8c0,2.7,2.2,4.9,5,4.9c0.1,0,0.1,0,0.2,0c3.7,0,8-3.5,8-8c0-2.7-2.2-4.9-5-4.9
				C233.5,146.1,233.5,146.1,233.4,146.1z"/>
			<path d="M229.7,165.3c-3.3,0.1-6,2.5-6.7,5.7l-7,35.6c-0.6,2.3,0.7,4.6,3,5.2c0.4,0.1,0.9,0.2,1.4,0.1c3.3-0.1,6-2.5,6.7-5.7
				l7-35.6c0.6-2.2-0.7-4.6-2.9-5.2C230.6,165.3,230.1,165.2,229.7,165.3z"/>
			<path d="M269.4,166.2h-10.6l1.3-6.5c0.3-1.3,0-2.7-0.8-3.8c-0.9-1-2.1-1.6-3.4-1.5c-3.3,0.1-6.1,2.5-6.8,5.7l-1.2,6.2h-2.4
				c-3.4,0.1-6.2,2.9-6.3,6.3c0,2,1.6,3.7,3.6,3.8c0.1,0,0.2,0,0.3,0h2.8l-2.6,13.5c-1.3,6.9-0.3,12.6,2.9,16.5
				c3,3.6,7.8,5.6,13.8,5.6c3.4-0.1,6.2-2.9,6.3-6.3c0-2-1.6-3.7-3.6-3.8c-0.1,0-0.2,0-0.3,0c-3.1,0-5.3-0.9-6.8-2.6
				c-1.7-2.1-2.1-5.3-1.3-9.7l2.5-13.2h10.1c3.4-0.1,6.2-2.9,6.3-6.3c0-2-1.6-3.7-3.6-3.8C269.7,166.2,269.5,166.2,269.4,166.2z"/>
			<path d="M316,170.9c-4-3.7-9.3-5.8-14.8-5.6c-15,0-27.7,12.7-27.7,27.8c0,10.9,8.5,18.8,20.2,18.8c6.3,0,12.5-2.3,17.4-6.3
				c1.6-1.3,2.5-3.2,2.5-5.2c0-2.2-1.7-4.1-4-4.1c-0.1,0-0.2,0-0.3,0c-1.9,0.1-3.8,0.9-5.2,2.2c-2.6,2.1-5.8,3.2-9.1,3.3
				c-6.1,0-10.5-4.5-10.5-10.6c0-8.4,7.1-15.8,15.2-15.8c3,0,6,1.2,8,3.5c1.4,1.6,2.1,2,3.6,2c3.5-0.1,6.3-2.9,6.4-6.4
				C317.8,173.1,317.1,171.8,316,170.9z"/>
			<path d="M350,165.3c-3.7,0-7.3,1.2-10.2,3.4L338,170l3.2-16.7c0.6-2.2-0.7-4.6-2.9-5.2c-0.5-0.1-0.9-0.2-1.4-0.1
				c-3.3,0.1-6,2.5-6.7,5.7l-10.3,52.9c-0.6,2.2,0.7,4.6,2.9,5.2c0.5,0.1,0.9,0.2,1.4,0.1c3.3-0.1,6-2.5,6.7-5.7l4.1-21
				c1.2-6,5.4-9.8,10.8-9.8c2.3-0.1,4.5,0.8,6,2.5c1,1.3,2.1,3.6,1.4,7.6l-4.1,21c-0.3,1.3,0,2.7,0.9,3.8c0.9,1,2.1,1.5,3.5,1.5
				c3.3-0.1,6-2.4,6.7-5.6l3.8-19.6c1.3-6.7,0.2-12.5-3.1-16.5C358.1,166.9,354.1,165.1,350,165.3z"/>
		</g>
		<g>
			<g>
				<path d="M360.7,37.3l-8.5-3.4c-1.5-0.6-3.2-0.1-4.2,1.1l-5.5,7.5c-0.9,1.2-0.9,2.7-0.2,3.9l5,8.1c0.6,1,1.8,1.7,3,1.7
					c0.3,0,0.7,0,1-0.1l8.7-2.5c1.5-0.4,2.5-1.7,2.5-3.3l0.3-9.7C362.9,39.1,362.1,37.8,360.7,37.3z"/>
				<path d="M384.4,22.8c-11.3-12.7-30.8-13.9-43.5-2.6S327,51,338.3,63.7c5.4,6.1,13,9.8,21.2,10.3c0.6,0,1.2,0,1.9,0
					c17,0,30.8-13.8,30.8-30.9C392.1,35.6,389.4,28.4,384.4,22.8L384.4,22.8z M378.1,49.7l-8,4.9c-0.8,0.5-1.3,1.2-1.4,2.1l-1,6.2
					c-0.2,1.2,0.3,2.4,1.3,3l1.4,1c0.2,0.1,0.4,0.2,0.7,0.3l2.2,0.8l-2.2,0.8c-3.6,1.4-7.5,2-11.4,1.8l-0.7-0.2h-0.3l-0.6-0.1
					l-0.7-3.2c-0.2-0.8-0.5-2-8.7-6.1c-0.3-0.2-0.6-0.3-1-0.3l-1.5-0.2c-1.2-0.2-2.5,0.3-3.1,1.4l-0.6,1l-0.8-0.8
					c-2.9-3-5.1-6.7-6.4-10.7l-0.1-0.2l0.9-4c0.1-0.5,0.5-2.1,0.7-2.9v-0.2c0.1-0.4,0.1-0.8,0.1-1.2c0-0.2,0-0.6-0.1-1.1v-0.3
					c-0.1-2.3-0.2-4.8-1.4-5.5l-0.5-0.4l0.2-0.6c1.3-4.3,3.6-8.2,6.7-11.3l0.7-0.7l0.6,0.7c0.5,0.7,1.3,1.1,2.2,1.1l3.3,0.1
					c0.5,0,1.1-0.1,1.5-0.4l8.4-4.8c1.1-0.7,1.7-1.9,1.5-3.2l-0.2-1h1.2c0.7,0,1.3,0,2,0c4.8,0.3,9.4,1.8,13.4,4.5l2.6,2l-6.1-0.1
					c-0.9,0-1.7,0.4-2.3,1c-0.6,0.7-0.9,1.6-0.8,2.4l0.8,6.7c0.1,0.9,0.6,1.7,1.4,2.2l7.5,4.9c0.5,0.3,1.1,0.5,1.7,0.5
					c1,0,2-0.5,2.6-1.4l3.3-4.9l0.5,1.8c2,6.3,1.6,13.1-1.1,19.2l-0.9,2l-0.8-2c-0.1-0.3-0.2-0.5-0.4-0.7l-2.3-3
					C381.2,49.2,379.4,48.9,378.1,49.7L378.1,49.7z"/>
			</g>
			<path d="M223.8,65.1c-0.7,0.5-1,1.5-0.6,2.3c0.3,0.8,1.3,1.3,2.1,1.1c54.1-11.5,84.3-6.9,97.4-3.1c1,0.3,2-0.3,2.3-1.3
				c0.1-0.5,0.1-1-0.1-1.4c-2.9-5.6-4.7-11.7-5.1-18c-0.9-11.7,3.6-19.6,7.4-24.1c0.5-0.6,0.6-1.5,0.2-2.2s-1.2-1.1-1.9-0.9
				C283.1,24.4,243.6,50.3,223.8,65.1L223.8,65.1z"/>
		</g>
	</g>
	<g>
		<path d="M61.3,88.1c-2.6,0-4.7,2.1-4.7,4.7c0,0.9,0.3,1.8,0.8,2.6l8.1,12.2l-0.9,0.8c-13.7,12.1-15,33-2.9,46.7
			c6.3,7.1,15.4,11.2,24.9,11.2c0.7,0,1.3,0,2-0.1c2.6-0.2,4.7-2.4,4.5-5.1c-0.1-0.8-0.3-1.7-0.8-2.4c-1-1.4-2.6-2.2-4.3-2.1
			c-13,0.8-24.1-9.1-24.9-22c-0.4-6.6,2-13.1,6.6-17.8l1.2-1.2l8.8,13.1c0.9,1.3,2.4,2.1,3.9,2.1c2.6,0,4.7-2.1,4.7-4.7
			c0-0.9-0.3-1.8-0.8-2.6L65.2,90.2c-0.7-1-1.8-1.8-3-2C61.9,88.1,61.6,88.1,61.3,88.1z"/>
		<path d="M91.9,133.9c-2.6,0-4.7,2.1-4.7,4.7c0,0.9,0.3,1.8,0.8,2.6l22.2,33.3c1.4,2.2,4.4,2.7,6.5,1.3c2.2-1.4,2.7-4.4,1.3-6.5
			l0,0l-8.1-12.2l0.9-0.8c12.3-11,14.7-29.4,5.6-43.1l0,0c-6.5-9.6-17.5-15.2-29.1-14.7c-2.6,0.1-4.7,2.4-4.6,5
			c0,0.9,0.3,1.7,0.8,2.4c0.9,1.4,2.5,2.2,4.2,2.1c8.2-0.4,16.1,3.6,20.6,10.4c6.1,9.2,5,21.5-2.7,29.4l-1.2,1.2l-8.6-13
			c-0.7-1-1.8-1.8-3-2C92.5,133.9,92.2,133.9,91.9,133.9z"/>
		<path d="M97.5,55.2c-6.7,0-13.3,2-18.9,5.7l-51.5,34c-15.8,10.5-20.2,31.8-9.7,47.7l34,51.4c10.5,15.9,31.8,20.2,47.7,9.7l51.5-34
			c15.9-10.5,20.2-31.8,9.7-47.7l0,0l-34-51.4C119.9,61,109.1,55.2,97.5,55.2z M80.2,201.7c-1.8,0-3.6-0.2-5.4-0.5
			c-5.7-1.1-10.8-4.1-14.6-8.4l-1.1-1.2l1.5-0.8c6.4-3.4,12-4.6,17.1-3.6l0,0c5.1,1,9.8,4.3,14.3,10l1,1.3l-1.5,0.7
			C88,200.8,84.1,201.7,80.2,201.7z M99.6,194.1l-0.8-1c-6.7-8.6-14-13.3-22.2-14.1l0,0c-6.4-0.7-13.2,1.1-20.8,5.3l-1.1,0.6
			l-28-42.4l1-0.8c8.7-6.7,13.3-14,14.1-22.2c0.6-6.2-1-12.8-5-20.2l-0.6-1.1l42-27.8l0.8,1c6.7,8.6,14,13.2,22.2,14.1
			c0.9,0.1,1.8,0.1,2.6,0.1c5.6,0,11.5-1.8,18-5.3l1.1-0.6l27.6,41.8l-1,0.8c-9,6.8-13.9,14.2-14.7,22.7c-0.7,6.4,1.1,13.2,5.3,20.8
			l0.6,1.1L99.6,194.1z M147.3,162.5l-0.8-1.4c-3.5-6.5-4.7-12.1-3.6-17.2l0,0c1.1-5.2,4.6-10.1,10.6-14.8l1.3-1l0.7,1.5
			c5.3,11,2.4,24.1-7,31.9L147.3,162.5z M22.5,136l-0.7-1.6c-4.6-10.6-2-22.9,6.6-30.6l1.3-1.1l0.8,1.5c2.8,5.5,4,10.2,3.5,14.6
			c-0.6,5.7-3.9,11-10.2,16.1L22.5,136z M103.9,77.9c-0.6,0-1.2,0-1.8-0.1l0,0c-5.7-0.6-11-3.9-16.1-10.2l-1.1-1.3l1.6-0.7
			c3.5-1.6,7.3-2.5,11.1-2.5c7.6,0,14.9,3.2,19.9,8.9l1.1,1.3l-1.5,0.8C112.2,76.6,107.8,77.9,103.9,77.9L103.9,77.9z"/>
	</g>
</g>
<g>
	<g>
		<path d="M231.4,269.6c-1.5,2.8-1.6,5.5,0,8.3c-1.3,0-2.6,0-3.8,0c-0.7,0-0.8,0.2-0.8,0.8c0,8.6,0,17.2,0,25.8c0,0.9-0.3,1-1.1,1
			c-2.5-0.1-5-0.1-7.5,0c-0.7,0-0.8-0.2-0.8-0.8c0-8.6,0-17.2,0-25.8c0-0.8-0.2-1-1-1c-1.9,0.1-3.8,0-5.7,0c-0.5,0-0.7-0.1-0.7-0.6
			c0-2.3,0-4.7,0-7c0-0.4,0-0.6,0.5-0.6C217.6,269.6,224.5,269.6,231.4,269.6z"/>
		<path d="M266,281c-2.3,1.8-4,3.9-5.1,6.5c-0.1,0.3-0.3,0.5-0.6,0.4c-0.1,0-0.2,0-0.3,0c-0.8,0.1-1.8-0.3-2.2,0.2
			c-0.4,0.4-0.1,1.4-0.1,2.1c0,4.8,0,9.5,0,14.3c0,0.7-0.1,0.9-0.9,0.9c-2.4-0.1-4.7-0.1-7.1,0c-0.7,0-0.8-0.2-0.8-0.8
			c0-5.3,0-10.6,0-15.9c0-0.6-0.1-0.8-0.8-0.8c-1.3,0.1-2.5,0-3.8,0c-0.4,0-0.5-0.1-0.5-0.5c0-1.9,0-3.9,0-5.8
			c0-0.5,0.2-0.6,0.7-0.6c1.2,0,2.4,0,3.6,0c0.6,0,0.8-0.2,0.8-0.8c0.2-5.3,4-10.9,10.4-12.4c0.8-0.2,1.6-0.2,2.4-0.4
			c0.5-0.1,0.7,0.1,0.7,0.6c0,2.5-0.1,5,0,7.5c0,0.5-0.2,0.6-0.6,0.7c-2.1,0.3-3.8,1.8-4.1,3.9c-0.1,0.6-0.1,0.9,0.7,0.8
			c2.3-0.1,4.5,0,6.8,0C265.4,281,265.7,281,266,281z"/>
		<path d="M242.3,293.3c0,3.8,0,7.6,0,11.5c0,0.6-0.2,0.8-0.8,0.7c-2.4,0-4.8,0-7.3,0c-0.5,0-0.7-0.1-0.7-0.7c0-7.7,0-15.4,0-23.1
			c0-0.6,0.2-0.7,0.7-0.7c2.4,0,4.8,0,7.3,0c0.6,0,0.7,0.1,0.7,0.7C242.3,285.5,242.3,289.4,242.3,293.3z"/>
		<path d="M237.9,279.2c-3.1,0-5.4-2.4-5.4-5.6c0-3,2.5-5.4,5.5-5.4s5.4,2.4,5.4,5.5C243.5,276.9,241,279.2,237.9,279.2z"/>
		<path d="M274.5,280.3c-7.1,0-12.9,5.8-12.9,12.9c0,7.2,5.8,12.9,12.9,12.9s12.8-5.7,12.8-12.8C287.3,286,281.6,280.3,274.5,280.3z
			 M274.4,299.1c-3.3,0-5.9-2.7-6-5.9c0-3.2,2.7-5.9,5.9-5.9c3.3,0,6,2.7,6,5.9C280.4,296.4,277.7,299.1,274.4,299.1z"/>
	</g>
</g>
<g style="enable-background:new    ;">
	<path d="M187,256.7c-0.4,0.7-0.8,0.9-1.4,0.9c-0.9,0-1.7-0.5-1.7-1.3c0-0.2,0.1-0.5,0.2-0.8l6.7-12.9c1-1.9,1.5-2.2,2.7-2.2
		c1.3,0,1.7,0.5,2.1,2.2l2.7,13.1c0,0.3,0.1,0.4,0.1,0.6c0,1-1.1,1.3-1.9,1.3c-0.5,0-1-0.2-1.1-0.9l-0.5-2.2c0-0.2-0.1-0.3-0.3-0.3
		h-5.9c-0.2,0-0.3,0.1-0.4,0.3L187,256.7z M193.9,251c0.1,0,0.2-0.1,0.2-0.2c0,0,0-0.1,0-0.3l-0.9-5.4c0-0.3,0-0.8-0.2-0.8
		c-0.2,0-0.3,0.4-0.4,0.8l-2.6,5.4c-0.1,0.2-0.1,0.3-0.1,0.3c0,0.1,0,0.1,0.2,0.1H193.9z"/>
	<path d="M207.7,243.3c-1,0-2.6,0.4-2.6,1.8c0,0.7,0.7,1.2,1.8,1.7l2.1,1c2.2,1.1,3.4,2.5,3.4,4.6c0,3.4-3,5.2-6.3,5.2
		c-2.4,0-4.5-0.8-5.9-2.4c-0.2-0.2-0.3-0.5-0.3-0.8c0-0.9,0.9-1.7,1.9-1.7c0.4,0,0.8,0.3,1.1,0.5c0.8,0.7,1.8,1.4,3.6,1.4
		c1.1,0,2.7-0.4,2.7-1.9c0-0.8-0.6-1.4-1.7-1.9l-2.1-1c-2.2-1.1-3.5-2.3-3.5-4.5c0-3.1,2.8-4.9,6.1-4.9c1.8,0,3.6,0.4,5,1.7
		c0.3,0.2,0.5,0.6,0.5,1.1c0,0.9-0.9,1.7-1.7,1.7c-0.4,0-0.8-0.2-1-0.4C209.8,243.7,208.8,243.3,207.7,243.3z"/>
	<path d="M227.2,243.3c-1,0-2.6,0.4-2.6,1.8c0,0.7,0.7,1.2,1.8,1.7l2.1,1c2.2,1.1,3.4,2.5,3.4,4.6c0,3.4-3,5.2-6.3,5.2
		c-2.4,0-4.5-0.8-5.9-2.4c-0.2-0.2-0.3-0.5-0.3-0.8c0-0.9,0.9-1.7,1.9-1.7c0.4,0,0.8,0.3,1.1,0.5c0.8,0.7,1.8,1.4,3.6,1.4
		c1.1,0,2.7-0.4,2.7-1.9c0-0.8-0.6-1.4-1.7-1.9l-2.1-1c-2.2-1.1-3.5-2.3-3.5-4.5c0-3.1,2.8-4.9,6.1-4.9c1.8,0,3.6,0.4,5,1.7
		c0.3,0.2,0.5,0.6,0.5,1.1c0,0.9-0.9,1.7-1.7,1.7c-0.4,0-0.8-0.2-1-0.4C229.4,243.7,228.4,243.3,227.2,243.3z"/>
	<path d="M246,240.4c1,0,1.3,0.6,1.3,1.3c0,0.9-0.6,1.7-1.9,1.7h-6c-0.2,0-0.2,0-0.3,0.2l-0.5,3.2c0,0.2,0,0.2,0.2,0.2h5.1
		c1,0,1.3,0.6,1.3,1.3c0,0.9-0.6,1.7-1.9,1.7h-5c-0.2,0-0.2,0-0.2,0.2l-0.6,3.7c0,0.2,0,0.2,0.2,0.2h6.3c1,0,1.3,0.6,1.3,1.3
		c0,0.9-0.6,1.7-1.9,1.7h-8.2c-0.9,0-1.3-0.5-1.2-1.4l2.2-14.1c0.1-0.9,0.7-1.4,1.6-1.4H246z"/>
	<path d="M260,240.4c1,0,1.3,0.6,1.3,1.3c0,0.9-0.6,1.7-1.9,1.7h-6c-0.2,0-0.2,0-0.3,0.2l-0.5,3.2c0,0.2,0,0.2,0.2,0.2h5.1
		c1,0,1.3,0.6,1.3,1.3c0,0.9-0.6,1.7-1.9,1.7h-5c-0.2,0-0.2,0-0.2,0.2l-0.6,3.7c0,0.2,0,0.2,0.2,0.2h6.3c1,0,1.3,0.6,1.3,1.3
		c0,0.9-0.6,1.7-1.9,1.7h-8.2c-0.9,0-1.3-0.5-1.2-1.4l2.2-14.1c0.1-0.9,0.7-1.4,1.6-1.4H260z"/>
	<path d="M273.8,241.7c0.2-1.1,0.9-1.3,1.8-1.3c0.7,0,1.4,0.2,1.4,1.1c0,0.1,0,0.5-0.1,0.9l-2.1,13.3c-0.2,1.4-1,1.9-1.9,1.9
		c-1.1,0-1.4-0.4-2-1.8l-3.7-8.6c0-0.1-0.1-0.3-0.2-0.3c-0.1,0-0.1,0.2-0.1,0.3l-1.4,9.1c-0.2,1.1-0.9,1.3-1.8,1.3
		c-0.7,0-1.4-0.2-1.4-1.1c0-0.1,0-0.5,0.1-0.9l2.1-13.3c0.2-1.5,1-1.9,1.9-1.9c1,0,1.4,0.4,2,1.8l3.7,8.6c0,0.1,0.1,0.2,0.2,0.2
		c0.1,0,0.1-0.2,0.1-0.2L273.8,241.7z"/>
	<path d="M291.9,240.3c3.4,0,5.4,1.4,5.4,5.1c0,1-0.1,2.2-0.3,3.5c-0.8,5.2-1.8,8.6-7.8,8.6c-3.3,0-5.4-1.4-5.4-5
		c0-1,0.1-2.2,0.3-3.6C285,244,286,240.3,291.9,240.3z M294,245.9c0-1.6-0.9-2.5-2.5-2.5c-3.3,0-3.5,3.3-4,5.6
		c-0.2,1.2-0.4,2.3-0.4,3.1c0,1.7,0.7,2.5,2.6,2.5c3.1,0,3.5-2.4,4-5.6C293.8,247.7,294,246.7,294,245.9z"/>
	<path d="M310.4,241.7c0.2-1.1,0.9-1.3,1.8-1.3c0.7,0,1.4,0.2,1.4,1.1c0,0.1,0,0.5-0.1,0.9l-2.1,13.3c-0.2,1.4-1,1.9-1.9,1.9
		c-1.1,0-1.4-0.4-2-1.8l-3.7-8.6c0-0.1-0.1-0.3-0.2-0.3c-0.1,0-0.1,0.2-0.1,0.3l-1.4,9.1c-0.2,1.1-0.9,1.3-1.8,1.3
		c-0.7,0-1.4-0.2-1.4-1.1c0-0.1,0-0.5,0.1-0.9l2.1-13.3c0.2-1.5,1-1.9,1.9-1.9c1,0,1.4,0.4,2,1.8l3.7,8.6c0,0.1,0.1,0.2,0.2,0.2
		c0.1,0,0.1-0.2,0.1-0.2L310.4,241.7z"/>
</g>
</svg>
